<svg xmlns="http://www.w3.org/2000/svg" width="73" height="76" fill="none" viewBox="0 0 73 76"><rect width="72.504" height="74.636" x=".4" y=".682" fill="#f6eeff" rx="8.53"/><path fill="#7c32d2" d="M28.123 23.98a1.574 1.574 0 0 1-1.562-1.563v-6.25c0-.854.708-1.563 1.562-1.563s1.563.709 1.563 1.563v6.25c0 .854-.709 1.563-1.563 1.563m15.625 0a1.574 1.574 0 0 1-1.562-1.563v-6.25c0-.854.708-1.563 1.562-1.563s1.563.709 1.563 1.563v6.25c0 .854-.709 1.563-1.563 1.563m-7.812 17.375c1.083 0 1.874-.646 1.874-1.667 0-1.042-.791-1.646-1.875-1.646-1.083 0-1.875.604-1.875 1.646 0 1.02.792 1.666 1.875 1.666m.001 6.062c1.311 0 2.374-.867 2.374-1.937s-1.063-1.938-2.375-1.938c-1.311 0-2.375.867-2.375 1.938s1.064 1.937 2.375 1.937"/><path fill="#7c32d2" d="M51.706 21.375c-1.375-1.02-3.354-.041-3.354 1.688v.208c0 2.438-1.75 4.688-4.187 4.938a4.695 4.695 0 0 1-5.188-4.667v-2.167a2.09 2.09 0 0 0-2.083-2.083h-1.917a2.09 2.09 0 0 0-2.083 2.083v2.167a4.62 4.62 0 0 1-2.146 3.917c-.187.125-.396.229-.604.333a2.8 2.8 0 0 1-.625.25 3.3 3.3 0 0 1-.813.167 4 4 0 0 1-1 0 3.3 3.3 0 0 1-.812-.167 4 4 0 0 1-.625-.25c-.208-.104-.417-.208-.604-.333-1.313-.917-2.146-2.5-2.146-4.188v-.208c0-1.604-1.708-2.563-3.063-1.875-.02.02-.041.02-.062.042a1.4 1.4 0 0 0-.23.145c-.062.063-.145.105-.208.167a9 9 0 0 0-1.541 1.542c-.23.25-.417.52-.584.791-.02.021-.041.042-.062.084-.188.27-.354.583-.5.875-.042.041-.063.062-.063.104-.125.25-.25.5-.333.77-.062.105-.083.188-.125.292-.125.313-.208.625-.292.938a6.5 6.5 0 0 0-.187.917 7 7 0 0 0-.083.708c-.021.292-.042.583-.042.875v18.25c0 5.604 4.542 10.146 10.146 10.146h19.29c5.604 0 10.146-4.542 10.146-10.146v-18.25c0-3.313-1.583-6.208-4.02-8.063m-15.77 28.646c-3.23 0-5.209-1.604-5.209-4.187 0-1.417.73-2.646 2-3.375-.916-.646-1.52-1.605-1.52-2.917 0-2.708 2.166-4.104 4.728-4.104 2.563 0 4.709 1.396 4.709 4.104 0 1.313-.584 2.27-1.521 2.917 1.292.729 2.02 1.958 2.02 3.375 0 2.583-2 4.187-5.208 4.187"/></svg>